<svg id="Layer_2" height="512" viewBox="0 0 128 128" width="512" xmlns="http://www.w3.org/2000/svg" data-name="Layer 2"><path d="m32.778 54.387v5.3a5 5 0 0 0 5 5h52.444a5 5 0 0 0 5-5v-5.3z" fill="#795548"/><path d="m41.333 64.825h45.333v10.295h-45.333z" fill="#4e342e"/><path d="m70.325 126.25h-12.65l-10.008-51.13h32.666z" fill="#795548"/><path d="m52.326 54.387h23.348a23.747 23.747 0 0 0 10.713-28.634 23.654 23.654 0 0 1 -3.551 6.482c-.628-8.061-4.137-15.09-9.261-19.516a27.545 27.545 0 0 1 -8.25 14.041 30.308 30.308 0 0 1 -6.349-18.871c0-.036 0-.07 0-.106a32.975 32.975 0 0 1 .558-6.033 24.125 24.125 0 0 0 -8.395 8.8 31.241 31.241 0 0 0 -4 15.511 33.071 33.071 0 0 0 .4 5.092 31.623 31.623 0 0 0 1.106 4.707 23.793 23.793 0 0 1 -7.016-10.146 23.75 23.75 0 0 0 10.7 28.676z" fill="#fec108"/><path d="m70.643 54.387a8.109 8.109 0 0 0 1.232-4.587c0-5.327-7.875-11.65-7.875-11.65s-7.875 6.323-7.875 11.65a8.109 8.109 0 0 0 1.232 4.583z" fill="#ffeb3a"/></svg>