<?xml version="1.0" encoding="utf-8"?>
<!-- Generator: Adobe Illustrator 24.0.1, SVG Export Plug-In . SVG Version: 6.00 Build 0)  -->
<svg version="1.1"
	 id="svg64" inkscape:version="1.0 (4035a4fb49, 2020-05-01)" xmlns:cc="http://creativecommons.org/ns#" xmlns:dc="http://purl.org/dc/elements/1.1/" xmlns:inkscape="http://www.inkscape.org/namespaces/inkscape" xmlns:rdf="http://www.w3.org/1999/02/22-rdf-syntax-ns#" xmlns:sodipodi="http://sodipodi.sourceforge.net/DTD/sodipodi-0.dtd" xmlns:svg="http://www.w3.org/2000/svg"
	 xmlns="http://www.w3.org/2000/svg" xmlns:xlink="http://www.w3.org/1999/xlink" x="0px" y="0px" viewBox="0 0 228.7 153.5"
	 style="enable-background:new 0 0 228.7 153.5;" xml:space="preserve">
<style type="text/css">
	.st0{fill:#E07A5F;}
	.st1{fill:#525893;}
	.st2{fill:#87C2A5;}
	.st3{fill:#343434;}
</style>
<sodipodi:namedview  bordercolor="#666666" borderopacity="1.0" fit-margin-bottom="0" fit-margin-left="0" fit-margin-right="0" fit-margin-top="0" id="base" inkscape:current-layer="layer1" inkscape:cx="329.94865" inkscape:cy="24.575193" inkscape:document-rotation="0" inkscape:document-units="mm" inkscape:pageopacity="0.0" inkscape:pageshadow="2" inkscape:snap-page="false" inkscape:window-height="1198" inkscape:window-maximized="0" inkscape:window-width="1985" inkscape:window-x="299" inkscape:window-y="228" inkscape:zoom="1.5480095" pagecolor="#ffffff" showgrid="false">
	</sodipodi:namedview>
<g id="layer1" transform="translate(-0.6440986,-9.5880074)" inkscape:groupmode="layer" inkscape:label="Ebene 1">
	<g id="g86" transform="translate(-152.56314,14.339231)">
		<path id="path34" inkscape:connector-curvature="0" class="st0" d="M378.6,125.7h-66.8l33.4-57.8L378.6,125.7z"/>
		<rect id="rect36" x="268.4" y="30.2" class="st1" width="77.3" height="77.3"/>
		<circle id="circle38" class="st2" cx="267.4" cy="106.6" r="39.5"/>
		<path id="path1500" inkscape:connector-curvature="0" class="st3" d="M218.5,64.3L191.7,0.8c-1.1-2.8-1.1-2.8-5-2.8h-25.8
			c-2.6,0-4.6,0-4.6,2.4c0,2.4,2.4,2.4,3.1,2.4c1.8,0,5.5,0.4,8.5,1.5v74.4c0,3.1,0,9.2-9.4,10.1c-2.6,0.2-2.6,2.2-2.6,2.4
			c0,2.4,2.2,2.4,4.8,2.4h21.5c2.6,0,4.6,0,4.6-2.4c0-1.3-1.1-2.4-2.2-2.4c-10.7-0.9-10.7-6.8-10.7-10.1V9.3l0.2-0.2l33.9,81.7
			c1.3,2.4,2.2,2.8,3.1,2.8c1.8,0,2-1.1,2.8-2.8L248,9.1l0.2,0.2v69.4c0,3.1,0,9.2-9.6,10.1C236,89,236,91,236,91.2
			c0,2.4,2.2,2.4,4.8,2.4H278c2.6,0,4.6,0,4.6-2.4c0-1.3-1.1-2.4-2.2-2.4c-10.7-0.9-10.7-6.8-10.7-10.1V12.8c0-3.1,0-9.2,9.4-10.1
			c1.5,0,2.6-0.9,2.6-2.4c0-2.4-2-2.4-4.6-2.4h-26.9c-3.5,0-3.9,0-5,2.8L218.5,64.3z M214.3,66.9c1.1,2.2,1.3,2.4,3.1,3.1L211,84.6
			h-0.2l-31.7-76c-0.7-1.8-2-4.2-3.7-5.9h12L214.3,66.9z M253,2.8h14.9c-3.3,3.5-3.3,7.2-3.3,9.6v66.8c0,2.4,0,6.1,3.3,9.6h-18
			c3.1-3.5,3.1-7.2,3.1-9.6V2.8z"/>
	</g>
</g>
</svg>
