<svg height="512pt" viewBox="-64 0 512 512.02081" width="512pt" xmlns="http://www.w3.org/2000/svg"><path d="m301.125 304.9375 27.429688-73.140625c.894531-2.382813.753906-5.03125-.378907-7.304687l-18.285156-36.566407c-1.464844-2.921875-4.371094-4.84375-7.632813-5.039062-3.261718-.195313-6.378906 1.367187-8.179687 4.09375-1.800781 2.726562-2.007813 6.207031-.546875 9.128906l14.722656 29.429687c1.136719 2.273438 1.273438 4.917969.382813 7.300782l-16.058594 42.824218c-1.011719 2.699219-3.234375 4.761719-6 5.566407-2.761719.808593-5.746094.265625-8.050781-1.460938l-53.617188-40.214843c-4.050781-3.007813-9.773437-2.183594-12.8125 1.847656-2.175781 2.925781-5.894531 4.265625-9.4375 3.40625-3.546875-.863282-6.234375-3.761719-6.824218-7.359375-8.300782.574219-15.878907 4.914062-20.574219 11.785156l-7.585938 11.976563c-3.546875 5.59375-7.0625 11.195312-10.558593 16.808593-7.539063 12.058594-15.339844 24.527344-23.40625 36.601563-3.109376 4.664062-6.277344 9.28125-9.445313 13.898437-8.019531 11.6875-16.3125 23.777344-23.308594 36.160157-5.800781 8.550781-7.652343 19.179687-5.074219 29.183593 2.796876 7.742188 6.378907 15.175781 10.695313 22.183594l9.417969 17.074219c3.472656 6.375 6.949218 12.75 10.496094 19.082031 3.527343 6.367187 2.945312 14.222656-1.488282 20-4.433594 5.773437-11.871094 8.371094-18.9375 6.605469l-94.480468-23.570313-11.316407 45.453125c-.609375 2.511719-.132812 5.164063 1.316407 7.304688 1.4375 2.148437 3.722656 3.582031 6.28125 3.929687 4.941406.3125 9.371093-3.027343 10.429687-7.863281l4.464844-17.773438c1.230469-4.890624 6.1875-7.859374 11.082031-6.640624l127.605469 31.855468c.039062.007813.078125 0 .117187.003906l1.003906.277344c.992188.257813 2.027344.304688 3.039063.136719.167969-.035156.335937-.0625.507813-.089844.503906-.148437 1.023437-.25 1.546874-.308593.394532-.234376.804688-.441407 1.230469-.617188l.289063-.164062c.351562-.210938.6875-.449219 1-.710938.589844-.46875 1.125-1.007812 1.589844-1.601562.085937-.117188.164062-.246094.242187-.371094.332031-.460938.605469-.964844.820313-1.492188l.0625-.144531c.074218-.214844.273437-.722656.480468-1.222656.113282-.367188.191406-.730469.273438-1.089844.125-.851563.105468-1.71875-.054688-2.5625-.121094-.859375-.351562-1.699219-.695312-2.496094-.132813-.335937-.246094-.675781-.335938-1.019531l-25.707031-95.128906c-3.007813-13.542969 1.035156-27.691406 10.742187-37.601563 5.882813-6.78125 12.128907-13.238281 18.707032-19.34375.183594-.160156.324218-.34375.515625-.488281 10.21875-9.601562 20.722656-18.332031 30.378906-25.957031l30.875-24.367188-14.996094-11.246093c-4.039062-3.027344-4.859375-8.757813-1.828125-12.800782 3.03125-4.039062 8.761719-4.855468 12.800782-1.828125l53.027343 39.773438c2.304688 1.726562 5.285157 2.269531 8.050781 1.460937 2.765626-.808594 4.984376-2.871094 5.992188-5.570312zm0 0"/><path d="m237.367188 501.191406c-.539063 2.65625.15625 5.414063 1.894531 7.492188 1.726562 2.109375 4.316406 3.332031 7.042969 3.328125h36.113281c4.691406.179687 8.863281-2.953125 9.996093-7.507813.488282-2.664062-.234374-5.410156-1.972656-7.492187-1.734375-2.082031-4.304687-3.285157-7.015625-3.285157h-13.988281c-2.730469 0-5.316406-1.21875-7.054688-3.328124-1.734374-2.105469-2.441406-4.878907-1.917968-7.558594l17.460937-89.875c1.011719-4.941406-.113281-10.082032-3.09375-14.152344-2.992187-4.171875-7.609375-6.890625-12.714843-7.480469l-76.523438-8.992187c-4.882812 4.753906-9.664062 9.652344-14.089844 14.835937-4.121094 4.398438-6.738281 9.996094-7.46875 15.980469h60.691406c8.167969-.007812 15.914063 3.621094 21.132813 9.902344s7.367187 14.5625 5.863281 22.589844zm0 0"/><path d="m383.996094 118.871094c0-57.296875-40.875-106.441406-97.214844-116.871094-56.339844-10.433594-112.101562 20.8125-132.617188 74.308594-20.515624 53.5.054688 114.019531 48.921876 143.933594 1.316406.800781 2.6875 1.496093 4.027343 2.257812 9.273438-4.71875 20.417969-3.777344 28.769531 2.429688l43.855469 32.894531 10.378907-27.667969-12.941407-25.875c-6.773437-13.550781-1.285156-30.027344 12.265625-36.804688 13.546875-6.777343 30.027344-1.285156 36.804688 12.265626l15.042968 30.085937c27.011719-22.492187 42.65625-55.808594 42.707032-90.957031zm0 0"/></svg>