<?xml version="1.0" encoding="utf-8"?>
<!-- Designed by Vexels.com - 2016 All Rights Reserved - https://vexels.com/terms-and-conditions/  -->

<svg version="1.1" id="Layer_1" xmlns="http://www.w3.org/2000/svg" xmlns:xlink="http://www.w3.org/1999/xlink" x="0px" y="0px"
	 width="1200px" height="1200px" viewBox="0 0 1200 1200" enable-background="new 0 0 1200 1200" xml:space="preserve">
<g>
	<path fill="#575756" d="M251.059,443.946h96.065v28.483h-90.368c-3.172,0-5.76,2.784-5.76,6.31c0,3.397,2.588,6.148,5.76,6.148
		h261.26c3.172,0,5.697-2.751,5.697-6.148c0-3.526-2.526-6.31-5.697-6.31h-89.46v-28.483H523c13.075,0,23.694-11.683,23.694-26.024
		V215.505c0-14.404-10.619-26.087-23.694-26.087H251.059c-13.009,0-23.691,11.683-23.691,26.087v202.418
		C227.368,432.263,238.05,443.946,251.059,443.946z"/>
	<path fill="#575756" d="M196.555,417.147V254.54c-0.842-52.919-32.818-66.869-73.276-66.869S52.721,194.628,50,254.54v162.606
		c1.813,61.818,32.822,66.836,73.279,66.836S196.555,476.022,196.555,417.147z M125.092,424.978c-9.777,0-17.738-8.77-17.738-19.515
		c0-10.748,7.961-19.422,17.738-19.422c9.837,0,17.735,8.674,17.735,19.422C142.827,416.209,134.929,424.978,125.092,424.978z"/>
	<path fill="#575756" d="M701.79,345.488l0.325,0.096c-0.063,0.196-0.325,0.196-0.325,0.358c-0.517,2.33,4.985,5.631,12.236,7.411
		c5.89,1.326,11.003,1.23,12.883-0.162l0.388,0.162c0-0.259,0-0.388,0.063-0.583c0.129-0.225,0.454-0.322,0.454-0.55
		c0.129-0.192-0.129-0.517-0.259-0.809c11.262-55.024-18.189-110.661-68.228-126.066c-7.702-2.363-15.405-3.397-22.786-3.56
		l-5.439-35.927l-35.344,31.718l-35.277,31.817l42.721,17.543l42.725,17.672l-5.048-33.531c3.752,0.451,7.507,1.067,11.196,2.264
		C688.716,264.54,710.209,305.289,701.79,345.488z"/>
	<path fill="#575756" d="M822.583,720.644l-20.781-44.63l-24.791,42.171l-24.728,42.075l31.005,1.651
		c-1.23,3.884-2.522,7.802-4.401,11.557c-17.801,36.832-58.647,51.332-92.698,33.822l-0.192,0.355
		c-0.066-0.192-0.066-0.451-0.195-0.55c-1.942-0.971-6.085,4.305-9.191,11.587c-2.459,6.118-3.497,11.686-2.589,13.92l-0.133,0.421
		c0.133,0.096,0.325,0.129,0.52,0.192c0,0.129,0.063,0.421,0.192,0.517c0.129,0.099,0.454-0.096,0.65-0.096
		c46.606,23.886,102.73,3.918,127.067-46.606c3.626-7.639,6.214-15.6,8.027-23.694l33.143,1.846L822.583,720.644z"/>
	<path fill="#575756" d="M344.728,657.629l-16.959,31.297l45.764,0.55l45.638,0.583l-22.398-43.663l-22.461-43.663l-15.6,28.937
		c-2.588-2.98-5.372-5.697-7.51-9.257c-21.427-34.373-14.046-80.756,15.925-105.547l-0.196-0.325c0.196-0.03,0.454,0.066,0.583-0.03
		c1.617-1.491-0.646-7.868-5.114-14.242c-3.755-5.276-7.769-8.836-9.969-9.065l-0.192-0.355c-0.129,0.129-0.325,0.259-0.388,0.388
		c-0.196,0.033-0.454-0.066-0.65,0c-0.192,0.196-0.129,0.55-0.192,0.842c-41.041,34.177-51.01,97.712-21.622,144.775
		C333.724,646.009,339.03,652.19,344.728,657.629z"/>
	<path fill="#575756" d="M948.941,379.927H677.066c-13.141,0-23.823,11.683-23.823,26.087v202.451
		c0,14.305,10.682,25.987,23.823,25.987h94.378v28.45h-89.46c-3.172,0-5.697,2.817-5.697,6.281c0,3.497,2.526,6.277,5.697,6.277
		h261.26c3.238,0,5.76-2.781,5.76-6.277c0-3.463-2.522-6.281-5.76-6.281h-90.368v-28.45h96.065
		c13.075,0,23.757-11.683,23.757-25.987V406.014C972.698,391.61,962.016,379.927,948.941,379.927z"/>
	<path fill="#575756" d="M1076.721,378.243c-40.458,0-72.434,13.917-73.276,66.77v162.706c0,58.809,32.818,66.836,73.276,66.836
		s71.466-4.985,73.279-66.836V445.013C1147.282,385.137,1117.178,378.243,1076.721,378.243z M1074.845,615.455
		c-9.711,0-17.672-8.707-17.672-19.452c0-10.778,7.961-19.418,17.672-19.418c9.84,0,17.801,8.64,17.801,19.418
		C1092.646,606.748,1084.685,615.455,1074.845,615.455z"/>
	<path fill="#575756" d="M615.569,718.639H343.693c-13.078,0-23.694,11.62-23.694,26.021v202.517
		c0,14.338,10.616,25.958,23.694,25.958h95.995v28.513h-90.301c-3.235,0-5.76,2.817-5.76,6.281s2.526,6.214,5.76,6.214h261.197
		c3.235,0,5.76-2.751,5.76-6.214s-2.526-6.281-5.76-6.281h-89.397v-28.513h94.381c13.075,0,23.757-11.62,23.757-25.958V744.659
		C639.326,730.259,628.644,718.639,615.569,718.639z"/>
	<path fill="#575756" d="M215.911,716.859c-40.524,0-70.558,6.927-73.276,66.899v162.643c1.81,61.818,32.752,66.836,73.276,66.836
		c40.458,0,73.276-7.964,73.276-66.836V783.758C288.282,730.809,256.368,716.859,215.911,716.859z M217.724,954.136
		c-9.906,0-17.738-8.677-17.738-19.389c0-10.811,7.832-19.551,17.738-19.551c9.708,0,17.735,8.74,17.735,19.551
		C235.458,945.46,227.431,954.136,217.724,954.136z"/>
</g>
</svg>
